 <svg  version="1.0" xmlns="http://www.w3.org/2000/svg"  width="128.000000pt" height="128.000000pt" viewBox="0 0 128.000000 128.000000"  preserveAspectRatio="xMidYMid meet">  <g transform="translate(0.000000,128.000000) scale(0.100000,-0.100000)" fill="#661148" stroke="none"> <path d="M816 1090 c-14 -17 -26 -38 -26 -46 0 -9 18 -37 40 -63 22 -26 40 -54 40 -63 0 -25 -64 -101 -123 -146 -149 -112 -298 -163 -475 -163 -106 0 -113 -1 -127 -23 -36 -55 55 -203 158 -254 27 -13 54 -37 66 -57 43 -74 170 -120 315 -113 83 3 102 8 168 40 161 80 265 237 276 415 8 147 -28 234 -164 390 -52 59 -100 109 -108 111 -7 2 -25 -11 -40 -28z m126 -90 c97 -111 126 -156 148 -228 51 -164 -1 -346 -135 -470 -91 -86 -179 -122 -295 -122 -64 0 -129 13 -182 37 -41 17 -44 23 -28 54 9 15 22 19 63 19 69 0 165 24 230 56 107 54 190 176 221 326 18 87 21 198 6 198 -6 0 -10 -26 -10 -59 0 -186 -75 -349 -197 -430 -94 -62 -281 -94 -325 -55 -17 16 -15 18 32 40 177 82 332 255 397 444 33 97 31 125 -18 182 -40 48 -41 55 -11 91 13 14 18 15 27 5 6 -7 41 -47 77 -88z m-187 -272 c-16 -53 -74 -146 -124 -200 l-53 -58 -65 0 c-114 0 -293 60 -293 98 0 17 9 19 81 21 140 2 305 54 399 126 54 40 64 43 55 13z m-332 -268 c37 -7 85 -10 105 -7 l37 6 -30 -25 c-40 -33 -163 -94 -189 -94 -26 0 -57 20 -109 69 -57 53 -63 68 -37 96 l21 22 67 -27 c37 -15 98 -33 135 -40z"/> </g> </svg> 